<svg width="92" height="87" viewBox="0 0 92 87" fill="none" xmlns="http://www.w3.org/2000/svg">
<g clip-path="url(#clip0)">
<path d="M5.85737 85.1567C1.39322 85.0874 -0.941877 80.4444 1.53058 76.0093C6.68152 66.7232 12.0385 57.5065 17.3955 48.2204C25.7743 33.529 34.1532 18.907 42.6008 4.21558C44.8672 0.265541 47.9577 -0.912542 51.0483 0.95853C54.0702 2.7603 54.4823 6.15595 52.2159 10.0367C38.7547 33.6676 25.2249 57.16 11.8325 80.7216C10.4589 83.1471 8.94793 85.226 5.85737 85.1567Z" fill="white"/>
<path d="M26.9416 85.3652C22.6148 85.2959 20.2111 80.9994 22.2714 76.9107C23.9884 73.5151 25.9801 70.3273 27.9031 67.001C36.0073 52.864 44.1114 38.727 52.2156 24.5207C53.3831 22.511 54.6194 20.5014 57.2292 20.2242C59.4269 20.0163 61.3499 20.7786 62.5862 22.6496C63.9597 24.7979 63.8224 26.9462 62.5862 29.1637C58.1907 36.7173 53.9326 44.3402 49.5371 51.8938C43.9054 61.7342 38.205 71.644 32.642 81.5537C31.2684 83.9099 29.6888 85.5038 26.9416 85.3652Z" fill="white"/>
<path d="M75.6353 53.8341C75.7039 55.6359 75.2232 57.2298 74.3303 58.7544C72.7507 61.5263 71.1711 64.3676 69.5228 67.1395C67.5998 70.4659 67.3251 73.7922 68.9734 77.3265C70.6217 80.8607 69.7288 83.7713 66.8443 85.3652C63.9598 86.8897 61.0753 85.9196 59.0149 82.6625C57.9847 80.9993 57.0232 79.2669 56.1304 77.5344C54.3447 74.208 54.4134 70.8817 56.199 67.6246C57.7787 64.7834 59.2896 62.0114 60.9379 59.2395C62.9296 55.9131 63.067 52.5175 61.4873 48.9832C59.839 45.2411 60.6632 42.1919 63.6164 40.6673C66.4322 39.2121 69.4541 40.2516 71.3085 43.7165C73.2315 46.9043 75.8413 49.8148 75.6353 53.8341Z" fill="white"/>
<path d="M91.5001 80.3757C91.4314 83.6327 89.0276 86.1275 85.8684 85.9889C82.7091 85.9196 78.3823 80.5836 78.3823 76.8414C78.3823 73.6537 80.9235 71.1589 84.0827 71.2282C87.448 71.3668 91.5001 76.3563 91.5001 80.3757Z" fill="white"/>
</g>
<defs>
<clipPath id="clip0">
<rect width="91" height="86" fill="white" transform="translate(0.5 0.127441)"/>
</clipPath>
</defs>
</svg>
