<svg id="Layer_1" data-name="Layer 1" xmlns="http://www.w3.org/2000/svg" viewBox="0 0 1054.98 343.81"><defs><style>.cls-1{fill:#fe4239;}.cls-2{fill:#ff5351;}.cls-3{fill:#fe6560;}</style></defs><title>numbg</title><path class="cls-1" d="M1039.45-8V102.63S678,92.24,456.56,200.09q-11.4-3.65-22.3-7.78C219.09,110.47-14.3,84.69-14.3,84.69V-8Z" transform="translate(14.3 7.99)"/><path class="cls-2" d="M456.56,200.09c-.83.39-1.65.79-2.47,1.2C232.87,310.41-14.3,164.91-14.3,164.91V84.69s233.39,25.78,448.56,107.62Q445.15,196.45,456.56,200.09Z" transform="translate(14.3 7.99)"/><path class="cls-3" d="M-14.3,335.82V164.91s247.17,145.5,468.39,36.38c.82-.41,1.64-.81,2.47-1.2,215.23,68.79,559.77,7.85,582.89,6.52V335.82Z" transform="translate(14.3 7.99)"/><path class="cls-2" d="M1039.45,206.61c1.62-.1,1.67.1,0,.65Z" transform="translate(14.3 7.99)"/><path class="cls-2" d="M1039.45,206.61c-23.12,1.33-367.66,62.27-582.89-6.52C678,92.24,1039.45,102.63,1039.45,102.63Z" transform="translate(14.3 7.99)"/></svg>