<svg width="150" height="150" viewBox="0 0 150 150" fill="none" xmlns="http://www.w3.org/2000/svg">
<g opacity="0.2">
<path d="M125.757 111.855C122.994 105.31 118.984 99.3648 113.95 94.3506C108.932 89.3219 102.988 85.3126 96.4453 82.5439C96.3867 82.5146 96.3281 82.5 96.2695 82.4707C105.395 75.8789 111.328 65.1416 111.328 53.0273C111.328 32.959 95.0683 16.6992 75 16.6992C54.9316 16.6992 38.6719 32.959 38.6719 53.0273C38.6719 65.1416 44.6045 75.8789 53.7305 82.4853C53.6719 82.5146 53.6133 82.5293 53.5547 82.5586C46.9922 85.3271 41.1035 89.2969 36.0498 94.3652C31.0211 99.3833 27.0118 105.328 24.2431 111.87C21.5233 118.275 20.0564 125.142 19.9219 132.1C19.918 132.256 19.9454 132.411 20.0025 132.557C20.0597 132.703 20.1454 132.835 20.2546 132.947C20.3638 133.059 20.4943 133.148 20.6384 133.209C20.7825 133.27 20.9373 133.301 21.0937 133.301H29.8828C30.5273 133.301 31.04 132.788 31.0547 132.158C31.3476 120.85 35.8887 110.259 43.916 102.231C52.2217 93.9258 63.2519 89.3555 75 89.3555C86.748 89.3555 97.7783 93.9258 106.084 102.231C114.111 110.259 118.652 120.85 118.945 132.158C118.96 132.803 119.473 133.301 120.117 133.301H128.906C129.063 133.301 129.217 133.27 129.362 133.209C129.506 133.148 129.636 133.059 129.745 132.947C129.855 132.835 129.94 132.703 129.997 132.557C130.055 132.411 130.082 132.256 130.078 132.1C129.932 125.098 128.481 118.286 125.757 111.855V111.855ZM75 78.2227C68.2764 78.2227 61.9482 75.6006 57.1875 70.8398C52.4267 66.0791 49.8047 59.751 49.8047 53.0273C49.8047 46.3037 52.4267 39.9756 57.1875 35.2148C61.9482 30.4541 68.2764 27.832 75 27.832C81.7236 27.832 88.0517 30.4541 92.8125 35.2148C97.5732 39.9756 100.195 46.3037 100.195 53.0273C100.195 59.751 97.5732 66.0791 92.8125 70.8398C88.0517 75.6006 81.7236 78.2227 75 78.2227Z" fill="white"/>
</g>
</svg>
