<svg width="150" height="150" viewBox="0 0 150 150" fill="none" xmlns="http://www.w3.org/2000/svg">
<g opacity="0.2">
<path d="M103.537 137.494H103.712C107.012 137.494 110.131 136.194 112.494 133.831L129.444 116.881C130.025 116.301 130.486 115.613 130.8 114.854C131.114 114.096 131.276 113.283 131.276 112.463C131.276 111.642 131.114 110.829 130.8 110.071C130.486 109.312 130.025 108.624 129.444 108.044L104.444 83.0438C103.864 82.4628 103.175 82.002 102.417 81.6875C101.659 81.3731 100.846 81.2113 100.025 81.2113C99.2042 81.2113 98.3914 81.3731 97.6332 81.6875C96.8749 82.002 96.1862 82.4628 95.6062 83.0438L85.6437 93.0063C81.025 91.6313 72.4062 88.5063 66.9437 83.0438C61.4812 77.5813 58.3562 68.9625 56.9812 64.3438L66.9437 54.3813C67.5247 53.8013 67.9855 53.1126 68.3 52.3543C68.6144 51.5961 68.7762 50.7833 68.7762 49.9625C68.7762 49.1417 68.6144 48.3289 68.3 47.5707C67.9855 46.8125 67.5247 46.1237 66.9437 45.5438L41.9437 20.5438C40.7489 19.416 39.168 18.7877 37.525 18.7877C35.8819 18.7877 34.3011 19.416 33.1062 20.5438L16.1625 37.4938C13.7875 39.8688 12.45 43.1313 12.5 46.4625C12.6437 55.3625 15 86.275 39.3625 110.638C63.725 135 94.6375 137.35 103.537 137.494V137.494ZM37.5312 33.8L53.6937 49.9625L45.6125 58.0438C44.8771 58.7771 44.3368 59.6829 44.041 60.6784C43.7452 61.674 43.7031 62.7278 43.9187 63.7438C44.0687 64.4625 47.7375 81.5063 58.1125 91.8813C68.4875 102.256 85.5312 105.925 86.25 106.075C87.2659 106.292 88.32 106.25 89.3158 105.954C90.3116 105.658 91.2173 105.118 91.95 104.381L100.031 96.3L116.194 112.463L103.656 124.994C95.8562 124.863 69.1687 122.769 48.2 101.794C27.1625 80.7563 25.125 53.975 25 46.3313L37.5312 33.8ZM124.994 68.7438H137.494C137.494 36.6812 113.287 12.5 81.1812 12.5V25C106.569 25 124.994 43.3937 124.994 68.7438V68.7438Z" fill="white"/>
<path d="M81.2437 50C94.3875 50 99.9937 55.6063 99.9937 68.75H112.494C112.494 48.5938 101.4 37.5 81.2437 37.5V50V50Z" fill="white"/>
</g>
</svg>
