<svg width="150" height="150" viewBox="0 0 150 150" fill="none" xmlns="http://www.w3.org/2000/svg">
<g opacity="0.2">
<path d="M119.187 30.8125L110.375 39.625C119.741 49.0153 125.001 61.7371 125 75C125 102.625 102.625 125 75 125C47.375 125 25 102.625 25 75C25 49.5 44.0625 28.5 68.75 25.4375V38.0625C51 41.0625 37.5 56.4375 37.5 75C37.5 95.6875 54.3125 112.5 75 112.5C95.6875 112.5 112.5 95.6875 112.5 75C112.5 64.625 108.312 55.25 101.5 48.5L92.6875 57.3125C97.1875 61.875 100 68.125 100 75C100 88.8125 88.8125 100 75 100C61.1875 100 50 88.8125 50 75C50 63.375 58 53.6875 68.75 50.875V64.25C65 66.4375 62.5 70.375 62.5 75C62.5 81.875 68.125 87.5 75 87.5C81.875 87.5 87.5 81.875 87.5 75C87.5 70.375 85 66.375 81.25 64.25V12.5H75C40.5 12.5 12.5 40.5 12.5 75C12.5 109.5 40.5 137.5 75 137.5C109.5 137.5 137.5 109.5 137.5 75C137.5 57.75 130.5 42.125 119.187 30.8125Z" fill="white"/>
</g>
</svg>
